<svg width="142" height="40" viewBox="0 0 142 40" fill="none" xmlns="http://www.w3.org/2000/svg">
<path d="M6.9894 11.922V18.6604C6.97677 18.9884 7.04225 19.3147 7.18037 19.612C7.28377 19.8248 7.45434 19.9969 7.66526 20.1012C7.86366 20.1914 8.07063 20.261 8.28299 20.3089C8.49205 20.3475 8.7034 20.3721 8.91567 20.3826C9.08244 20.3767 9.24848 20.4076 9.40221 20.4731C9.45917 20.4941 9.5082 20.5325 9.54244 20.5829C9.57668 20.6334 9.59442 20.6934 9.59318 20.7546C9.59318 21.0204 9.39225 21.1539 8.99039 21.155C8.45126 21.155 7.71065 21.1449 6.76855 21.1248C5.82645 21.1047 5.16886 21.0952 4.79579 21.0963C4.42382 21.0963 3.76679 21.1058 2.82469 21.1248C1.88259 21.1438 1.14198 21.1539 0.602847 21.155C0.200989 21.155 6.13155e-05 21.0215 6.13155e-05 20.7546C-0.0011836 20.6934 0.0165556 20.6334 0.0507987 20.5829C0.0850419 20.5325 0.134073 20.4941 0.191026 20.4731C0.339238 20.4087 0.49965 20.3778 0.660968 20.3826C0.873235 20.3721 1.08458 20.3475 1.29365 20.3089C1.50684 20.264 1.71414 20.1943 1.91138 20.1012C2.12313 19.9975 2.29441 19.8253 2.39793 19.612C2.53604 19.3147 2.60153 18.9884 2.58889 18.6604V2.9119C2.60304 2.58912 2.53742 2.26787 2.39793 1.97704C2.29706 1.7586 2.12545 1.58133 1.91138 1.47443C1.71493 1.38263 1.50717 1.31783 1.29365 1.28176C1.08588 1.23496 0.873834 1.21026 0.660968 1.20805C0.499285 1.20318 0.339917 1.16795 0.191026 1.10417C0.134081 1.0827 0.0851364 1.04394 0.0509356 0.993231C0.0167347 0.942523 -0.00103885 0.882363 6.13155e-05 0.821038C6.13155e-05 0.555213 0.200989 0.421741 0.602847 0.420624C1.14309 0.420624 1.8837 0.430676 2.82469 0.45078C3.76568 0.470885 4.42271 0.480937 4.79579 0.480937C5.37588 0.480937 6.15082 0.470885 7.12059 0.45078C8.09036 0.430676 8.78227 0.420624 9.1963 0.420624C10.4375 0.403923 11.675 0.558941 12.8745 0.88135C13.8338 1.11349 14.7372 1.53734 15.5314 2.12782C16.1721 2.60938 16.6994 3.22781 17.0757 3.9389C17.4301 4.61599 17.6121 5.37132 17.6054 6.13698C17.6054 7.93856 16.9091 9.35369 15.5164 10.3824C14.1238 11.411 12.0392 11.9259 9.26273 11.9271L6.9894 11.922ZM6.9894 1.15779V11.1782H8.56363C10.1533 11.1782 11.3207 10.7828 12.0658 9.992C12.8108 9.20123 13.1883 7.90449 13.1983 6.1018C13.1983 4.48898 12.8108 3.26037 12.0359 2.41599C11.2609 1.5716 10.1035 1.15109 8.56363 1.15444L6.9894 1.15779ZM23.3311 7.05173V11.0006H23.3892C23.9582 9.62566 24.5671 8.62602 25.2158 8.00167C25.5034 7.70431 25.8465 7.46728 26.2252 7.30425C26.604 7.14122 27.011 7.0554 27.4227 7.05173C28.0476 7.02677 28.6599 7.23291 29.1447 7.63141C29.3726 7.82194 29.5535 8.06315 29.6733 8.33611C29.7932 8.60906 29.8487 8.90633 29.8355 9.20458C29.8355 9.84792 29.6739 10.3628 29.3507 10.7493C29.0274 11.1357 28.5635 11.3234 27.9591 11.3122C27.6348 11.324 27.3153 11.2306 27.0474 11.0458C26.8376 10.8958 26.6667 10.697 26.5493 10.4661C26.4596 10.2462 26.3301 10.0451 26.1673 9.87305C26.0949 9.78706 26.0045 9.71839 25.9025 9.67202C25.8006 9.62566 25.6897 9.60276 25.5778 9.60499C25.166 9.60499 24.7741 9.81776 24.4022 10.2433C24.0508 10.6391 23.776 11.0976 23.5918 11.5953C23.4346 11.9875 23.3453 12.4041 23.3278 12.8267V18.6604C23.3107 19.033 23.3812 19.4045 23.5337 19.7443C23.6471 19.9688 23.8344 20.1465 24.0634 20.2469C24.2646 20.3142 24.4713 20.3636 24.6811 20.3944C24.8611 20.4166 25.0385 20.4565 25.2109 20.5133C25.2742 20.5272 25.3309 20.5629 25.3711 20.6142C25.4114 20.6655 25.4328 20.7293 25.4317 20.7948C25.4317 21.0327 25.3088 21.1516 25.0631 21.1516C24.8771 21.1516 24.3789 21.1416 23.5685 21.1215C22.7582 21.1014 22.0475 21.0919 21.4364 21.093C20.8264 21.093 20.1151 21.1025 19.3025 21.1215C18.49 21.1405 17.9846 21.1505 17.7864 21.1516C17.5407 21.1516 17.4195 21.0327 17.4195 20.7948C17.4169 20.7411 17.4292 20.6877 17.4551 20.6407C17.4809 20.5936 17.5191 20.5548 17.5656 20.5284C17.6885 20.4661 17.8249 20.4356 17.9625 20.4396C18.3258 20.4196 18.6793 20.3128 18.9937 20.128C19.172 19.9998 19.3057 19.818 19.3756 19.6086C19.4949 19.3062 19.5514 18.9823 19.5417 18.657V11.0307C19.5627 10.6182 19.4457 10.2105 19.2095 9.87305C19.0376 9.6098 18.7842 9.4113 18.4889 9.30845C18.2232 9.21966 17.9774 9.14092 17.7516 9.05547C17.5257 8.97003 17.4294 8.86783 17.4294 8.75893C17.4248 8.71015 17.4332 8.66103 17.4536 8.61657C17.474 8.57212 17.5058 8.53394 17.5457 8.50595C17.7158 8.41577 17.9 8.3557 18.0903 8.32836C18.3759 8.26973 18.7047 8.20439 19.0767 8.1357C19.4487 8.06701 20.0432 7.938 20.8269 7.75036C21.6107 7.56272 22.4377 7.31979 23.3311 7.05173Z" fill="black"/>
<path d="M73.6695 19.225C74.3876 19.8955 75.2264 20.421 76.1405 20.773C77.1492 21.1536 78.2186 21.3444 79.2956 21.3359C80.3644 21.3441 81.4255 21.1533 82.4257 20.773C83.3424 20.4268 84.1826 19.9019 84.8983 19.2283C85.5712 18.5789 86.1112 17.8025 86.4875 16.9431C86.8653 16.0775 87.0604 15.1421 87.0604 14.1963C87.0604 13.2506 86.8653 12.3151 86.4875 11.4496C86.1138 10.5926 85.5734 9.82008 84.8983 9.17777C84.1884 8.49614 83.3466 7.9697 82.4257 7.63141C81.4271 7.23958 80.3637 7.04286 79.2922 7.05173C78.2138 7.04302 77.1433 7.23969 76.1372 7.63141C75.2194 7.97364 74.3792 8.49836 73.6662 9.17442C72.9963 9.82122 72.4566 10.5927 72.0771 11.4462C71.6982 12.3115 71.5024 13.247 71.5024 14.193C71.5024 15.1389 71.6982 16.0745 72.0771 16.9398C72.4603 17.796 73.0007 18.5713 73.6695 19.225ZM79.2906 7.60125C81.6154 7.60125 82.7778 9.79822 82.7778 14.1922C82.7778 18.5861 81.6154 20.7881 79.2906 20.7981C76.9558 20.7981 75.7884 18.5961 75.7884 14.1922C75.7884 9.78817 76.9558 7.5912 79.2906 7.60125Z" fill="black"/>
<path d="M57.1172 19.111L58.0554 19.1295C58.0281 19.1001 57.9946 19.0772 57.9574 19.0624C57.7543 19.0057 57.5434 18.9831 57.3331 18.9954C56.7275 18.9954 56.019 19.0044 55.2075 19.0222L55.2789 19.0826C55.7688 19.0859 56.3799 19.0976 57.1172 19.111Z" fill="black"/>
<path d="M84.5945 28.597C84.0592 27.6668 83.267 26.914 82.3146 26.4307C81.3454 25.9461 80.2758 25.7015 79.1943 25.717C77.2614 25.717 75.6562 26.3899 74.3787 27.7358C73.1011 29.0817 72.4685 30.7571 72.4806 32.7619C72.4806 34.9299 73.0934 36.6767 74.3189 38.0025C75.5444 39.3283 77.1679 39.9917 79.1894 39.9928C80.0649 40.0063 80.9358 39.8627 81.7616 39.569C82.4285 39.3397 83.0478 38.9881 83.5882 38.5319C84.0226 38.145 84.4036 37.701 84.7207 37.2117C84.9872 36.8197 85.2047 36.3959 85.3683 35.9502C85.4702 35.6739 85.5296 35.3835 85.5444 35.089C85.545 35.0615 85.5402 35.0341 85.5303 35.0085C85.5203 34.9829 85.5053 34.9596 85.4862 34.9399C85.4752 34.9179 85.4584 34.8993 85.4376 34.8863C85.4168 34.8733 85.3928 34.8663 85.3683 34.8662C85.3273 34.8677 85.2876 34.8809 85.2538 34.9043C85.2199 34.9278 85.1934 34.9605 85.1774 34.9985L84.9266 35.4593C84.8121 35.6758 84.6685 35.8754 84.4999 36.0524C84.0668 36.5462 83.5422 36.9497 82.9555 37.2402C82.3954 37.5083 81.6841 37.6423 80.8217 37.6423C80.1805 37.6521 79.5442 37.5293 78.9519 37.2815C78.3596 37.0337 77.8238 36.6661 77.3777 36.2015C76.4256 35.2309 75.9352 33.8654 75.9064 32.1052H85.5377C85.5089 30.7459 85.1945 29.5765 84.5945 28.597ZM75.913 31.373C75.9429 29.7803 76.2474 28.5333 76.8264 27.632C77.4053 26.7306 78.1847 26.2755 79.1644 26.2665C79.6888 26.2444 80.206 26.3956 80.6374 26.6971C81.0193 26.983 81.3282 27.5124 81.564 28.2853C81.7998 29.0582 81.9271 30.0875 81.9459 31.373H75.913Z" fill="black"/>
<path d="M140.806 26.3017C140.322 25.9034 139.709 25.6972 139.084 25.722C138.673 25.7257 138.266 25.8115 137.887 25.9746C137.508 26.1376 137.165 26.3746 136.878 26.672C136.23 27.2974 135.621 28.2971 135.051 29.6709H134.993V25.717C134.099 25.9851 133.26 26.2179 132.475 26.4156C131.69 26.6133 131.108 26.7429 130.727 26.8043C130.353 26.873 130.024 26.9384 129.74 26.997C129.55 27.0238 129.365 27.0845 129.196 27.1763C129.155 27.2035 129.123 27.2413 129.102 27.2855C129.082 27.3298 129.073 27.3788 129.078 27.4276C129.078 27.5393 129.186 27.6381 129.402 27.7241C129.627 27.8045 129.873 27.8916 130.137 27.9771C130.433 28.0794 130.687 28.278 130.86 28.5417C131.095 28.8796 131.212 29.2869 131.192 29.6994V37.3307C131.201 37.6554 131.145 37.9787 131.026 38.2806C130.956 38.49 130.822 38.6718 130.644 38.8C130.479 38.8915 130.306 38.9662 130.127 39.0228C129.959 39.0687 129.787 39.0984 129.613 39.1116C129.475 39.1075 129.339 39.1381 129.216 39.2004C129.169 39.2271 129.131 39.2662 129.104 39.3135C129.078 39.3608 129.066 39.4144 129.068 39.4684C129.068 39.7047 129.191 39.8236 129.436 39.8236C129.632 39.8236 130.138 39.8141 130.953 39.7951C131.767 39.7761 132.478 39.7661 133.085 39.765C133.694 39.765 134.405 39.775 135.219 39.7951C136.032 39.8152 136.53 39.8247 136.713 39.8236C136.959 39.8236 137.082 39.7047 137.082 39.4684C137.083 39.4028 137.062 39.3387 137.021 39.2872C136.981 39.2356 136.924 39.1996 136.861 39.1853C136.689 39.1284 136.511 39.0886 136.331 39.0663C136.121 39.0363 135.914 38.987 135.713 38.9189C135.484 38.8191 135.297 38.6412 135.184 38.4163C135.031 38.077 134.961 37.7061 134.978 37.334V31.4954C134.995 31.0727 135.085 30.6562 135.242 30.264C135.425 29.7663 135.7 29.3078 136.051 28.9119C136.425 28.4864 136.817 28.2736 137.228 28.2736C137.34 28.2719 137.45 28.295 137.552 28.3413C137.654 28.3876 137.745 28.456 137.817 28.5417C137.98 28.7137 138.11 28.9148 138.199 29.1348C138.317 29.3653 138.488 29.5641 138.698 29.7144C138.966 29.8991 139.286 29.9924 139.611 29.9808C140.209 29.9808 140.67 29.7932 140.994 29.4179C141.318 29.0426 141.48 28.5277 141.479 27.8732C141.494 27.5768 141.441 27.2809 141.324 27.0084C141.208 26.736 141.03 26.4942 140.806 26.3017Z" fill="black"/>
<path d="M100.194 37.6942C100.132 37.6984 100.073 37.7245 100.028 37.7679C99.9642 37.8226 99.9053 37.8825 99.8518 37.9472C99.8098 38.0092 99.7601 38.0655 99.704 38.1147C99.2423 38.5202 98.8405 38.7246 98.4967 38.7246C97.9975 38.7246 97.7473 38.442 97.7462 37.8768V29.6072C97.7462 28.2211 97.4423 27.2265 96.8345 26.6234C96.2267 26.0203 95.3145 25.7181 94.0979 25.717C92.8707 25.7271 91.6533 25.9376 90.4928 26.3402C89.3802 26.6904 88.3414 27.2454 87.429 27.9771C86.6054 28.6472 86.1936 29.3352 86.1936 30.0411C86.174 30.4916 86.3268 30.9325 86.6203 31.2725C86.7608 31.4244 86.9319 31.5441 87.1221 31.6236C87.3123 31.7031 87.5172 31.7405 87.7229 31.7333C88.4791 31.7333 89.0287 31.5099 89.3719 31.0631C89.7151 30.6163 89.9797 29.815 90.1656 28.659C90.2528 28.0022 90.584 27.4033 91.0922 26.9836C91.5704 26.5927 92.169 26.3829 92.7844 26.3905C93.2062 26.3905 93.5067 26.5195 93.6827 26.7758C93.8588 27.0322 93.9617 27.4091 93.9617 27.9352V31.4082L90.5625 32.7686C88.6894 33.5304 87.4163 34.2234 86.7432 34.8478C86.4218 35.1477 86.1677 35.5135 85.9979 35.9206C85.828 36.3278 85.7464 36.7668 85.7585 37.2084C85.7585 38.1879 86.0474 38.9005 86.6253 39.3461C87.2032 39.7918 87.9394 40.0096 88.8339 39.9995C90.4712 39.9995 92.1777 39.2914 93.9534 37.8752C94.1892 38.6481 94.513 39.1976 94.9248 39.5237C95.3367 39.8499 95.9594 40.0085 96.793 39.9995C97.4161 39.9959 98.0301 39.8487 98.5881 39.569C99.0828 39.3463 99.5361 39.0398 99.9281 38.6626C100.243 38.3465 100.399 38.1041 100.398 37.9355C100.406 37.7763 100.338 37.6942 100.194 37.6942ZM93.9551 37.1447C93.5766 37.4958 93.1505 37.7908 92.6897 38.0209C92.2775 38.2321 91.8234 38.3466 91.3613 38.356C90.8221 38.356 90.4147 38.1728 90.1391 37.8065C89.8634 37.4401 89.7278 36.8348 89.7322 35.9904C89.7174 35.5722 89.7941 35.156 89.9569 34.7711C90.1196 34.3863 90.3644 34.0424 90.6738 33.7638C91.3114 33.1986 92.4052 32.6145 93.9551 32.0114V37.1447Z" fill="black"/>
<path d="M116.175 37.8618C115.904 37.7566 115.626 37.6671 115.345 37.5937C115.013 37.4982 114.717 37.3072 114.491 37.0442C114.225 36.7259 114.089 36.3175 114.109 35.9016V17.5663C112.734 18.0131 111.488 18.3599 110.371 18.6067C109.254 18.8536 108.563 19.0021 108.296 19.0524C108.032 19.111 107.899 19.2199 107.899 19.3875C107.899 19.4964 107.982 19.5902 108.15 19.6706C108.317 19.751 108.517 19.808 108.752 19.8783C108.995 19.9393 109.231 20.0235 109.458 20.1297C109.71 20.2541 109.92 20.4504 110.063 20.6943C110.237 20.9845 110.324 21.3199 110.312 21.6593V26.2029C109.397 25.887 108.439 25.7213 107.472 25.712C106.027 25.6933 104.604 26.064 103.349 26.7859C102.164 27.4639 101.181 28.4491 100.501 29.6395C99.8204 30.8298 99.468 32.1821 99.4798 33.5561C99.4684 34.494 99.6329 35.4257 99.9647 36.302C100.253 37.0627 100.694 37.7551 101.26 38.3359C101.769 38.8454 102.361 39.2626 103.01 39.569C103.626 39.8487 104.293 39.9954 104.968 39.9995C107.144 39.9995 108.905 39.1926 110.25 37.5786H110.308V39.9995C111.542 39.5948 112.794 39.2526 114.061 38.9742C115.179 38.7363 115.876 38.5877 116.15 38.5286C116.436 38.4699 116.577 38.361 116.577 38.1935C116.572 38.0594 116.439 37.9505 116.175 37.8618ZM110.303 36.8967C109.964 37.3117 109.53 37.6377 109.038 37.8467C108.513 38.0712 107.948 38.1852 107.377 38.1817C106.348 38.1817 105.436 37.6322 104.641 36.5332C103.846 35.4341 103.454 34.0732 103.464 32.4503C103.464 30.3807 103.822 28.8321 104.538 27.8045C105.254 26.777 106.201 26.2621 107.377 26.2598C108.29 26.2598 109.006 26.5391 109.526 27.0975C110.047 27.656 110.306 28.4132 110.305 29.3693L110.303 36.8967Z" fill="black"/>
<path d="M127.907 28.597C127.372 27.6668 126.58 26.914 125.627 26.4307C124.658 25.9464 123.589 25.7018 122.507 25.717C120.574 25.717 118.969 26.3899 117.691 27.7358C116.414 29.0817 115.785 30.7593 115.803 32.7686C115.803 34.9354 116.412 36.6823 117.63 38.0092C118.848 39.3361 120.471 39.9995 122.5 39.9995C123.372 40.0094 124.239 39.8637 125.061 39.5689C125.735 39.3424 126.36 38.9906 126.906 38.5319C127.341 38.1455 127.723 37.7014 128.04 37.2117C128.307 36.8197 128.524 36.3959 128.688 35.9502C128.79 35.6739 128.849 35.3834 128.864 35.089C128.864 35.0615 128.86 35.0341 128.85 35.0085C128.84 34.9829 128.825 34.9596 128.806 34.9399C128.795 34.9178 128.778 34.8993 128.757 34.8863C128.736 34.8733 128.712 34.8663 128.688 34.8662C128.647 34.8675 128.607 34.8806 128.573 34.9041C128.539 34.9275 128.513 34.9603 128.497 34.9985L128.246 35.4593C128.132 35.6758 127.988 35.8754 127.819 36.0524C127.386 36.5466 126.861 36.9502 126.273 37.2402C125.715 37.5082 125.003 37.6423 124.141 37.6423C123.5 37.6523 122.864 37.5296 122.271 37.2818C121.679 37.0339 121.143 36.6663 120.697 36.2015C119.745 35.2309 119.255 33.8654 119.226 32.1052H128.857C128.822 30.7459 128.505 29.5765 127.907 28.597ZM119.226 31.373C119.256 29.7803 119.56 28.5333 120.137 27.6319C120.715 26.7306 121.495 26.2755 122.477 26.2665C123.001 26.2441 123.518 26.3953 123.948 26.6971C124.333 26.983 124.642 27.5124 124.877 28.2853C125.111 29.0582 125.239 30.0875 125.259 31.373H119.226Z" fill="black"/>
<path d="M69.9384 12.8267C69.8986 12.8237 69.8585 12.8286 69.8206 12.8413C69.7827 12.8539 69.7477 12.874 69.7175 12.9004C69.6624 12.9745 69.6269 13.0616 69.6146 13.1534C69.5946 13.2824 69.5747 13.4248 69.5548 13.584C69.5349 13.7431 69.4917 13.9743 69.4219 14.2809C69.3499 14.5925 69.2618 14.9001 69.1579 15.2024C68.915 15.8908 68.5941 16.5486 68.2014 17.1626C67.7931 17.8135 67.3196 18.4204 66.7883 18.9736C66.2572 19.5378 65.6294 20.0004 64.9351 20.3391C64.2726 20.6748 63.5426 20.8525 62.8012 20.8584C62.3438 20.8606 61.8875 20.8106 61.4412 20.7093C60.4327 20.4777 59.5235 19.9278 58.8458 19.1395C58.6466 18.9155 58.4635 18.6776 58.2978 18.4275C57.2383 16.7946 56.7086 14.2508 56.7086 10.7962C56.7086 7.34156 57.2289 4.80282 58.2695 3.17995C59.3091 1.54814 60.761 0.731678 62.6252 0.730561C63.2743 0.726055 63.9178 0.851028 64.5188 1.09829C65.1199 1.34556 65.6665 1.71024 66.1274 2.17138C67.1887 3.1975 68.0254 4.4365 68.5834 5.8086C68.8348 6.3993 69.037 7.01014 69.1878 7.63475C69.3339 8.21778 69.4319 8.60479 69.4817 8.79244C69.5315 8.98008 69.6245 9.05882 69.7607 9.05882C69.9821 9.05882 70.0928 8.8561 70.0928 8.45066V0.787523C70.0928 0.499359 69.9699 0.356953 69.7258 0.356953C69.661 0.355256 69.5974 0.374499 69.5442 0.411874C69.4911 0.449249 69.4511 0.502797 69.4302 0.564698C69.38 0.712869 69.3504 0.867362 69.3422 1.02375C69.329 1.19998 69.2501 1.36461 69.1214 1.48448C69.0409 1.55966 68.9456 1.61699 68.8418 1.65277C68.738 1.68855 68.6279 1.70199 68.5186 1.69222C68.1421 1.67309 67.7726 1.58272 67.4293 1.42584C66.9975 1.24713 66.5707 1.05391 66.1489 0.84616C65.6116 0.594403 65.0495 0.400659 64.4718 0.268159C63.745 0.0866052 62.9987 -0.00343281 62.2499 0.000100054C60.8584 -0.00252905 59.4812 0.282563 58.2031 0.837784C56.9397 1.36799 55.7934 2.14643 54.8309 3.1278C53.8685 4.10918 53.1091 5.27389 52.597 6.55414C52.0369 7.89783 51.7517 9.34185 51.7584 10.7995C51.7318 12.7174 52.1822 14.6113 53.0686 16.3081C53.6133 17.3358 54.3354 18.2571 55.2008 19.0289C56.0112 19.0099 56.7197 19.001 57.3263 19.0021C57.5367 18.9898 57.7476 19.0124 57.9507 19.0691C57.9879 19.0839 58.0214 19.1068 58.0487 19.1362C58.0762 19.1666 58.0974 19.2023 58.1111 19.2411C58.1248 19.28 58.1307 19.3212 58.1284 19.3623C58.1331 19.4584 58.1105 19.5538 58.0631 19.6372C58.0157 19.7207 57.9456 19.7887 57.861 19.8331C57.6552 19.9486 57.43 20.0247 57.1968 20.0576C57.044 20.0787 56.8934 20.1134 56.7468 20.1615L56.78 20.1816C58.1563 20.9787 59.695 21.448 61.2785 21.5537C61.5973 21.5794 61.9222 21.5923 62.2532 21.5923C63.1832 21.6003 64.1095 21.4757 65.0048 21.222C65.7149 21.0212 66.4125 20.7779 67.0938 20.4932C67.6529 20.2464 68.0796 20.123 68.3741 20.123C68.626 20.1043 68.8755 20.1828 69.0722 20.3427C69.2689 20.5025 69.398 20.7318 69.4336 20.9841C69.4611 21.1803 69.5055 21.3737 69.5664 21.5621C69.6345 21.7414 69.7325 21.8302 69.8454 21.8302C70.0911 21.8302 70.214 21.6626 70.214 21.3108V13.3176C70.2174 12.9909 70.1244 12.8267 69.9384 12.8267Z" fill="black"/>
<path d="M71.5957 31.8639C71.5321 31.8625 71.4699 31.8832 71.4196 31.9226C71.3499 31.9829 71.2536 32.2442 71.1091 32.71C70.5851 34.4672 69.6047 36.051 68.2695 37.2972C67.05 38.4614 65.4316 39.1049 63.7528 39.0931C62.8317 39.0931 62.1891 38.9256 61.8248 38.5905C61.4606 38.2555 61.2791 37.716 61.2802 36.9721V21.5755C61.2802 21.5654 61.2802 21.5571 61.2802 21.547C59.6967 21.4413 58.158 20.972 56.7817 20.1749L56.7485 20.1548C56.2272 19.8425 55.7348 19.4837 55.2772 19.0825L55.2058 19.0222L54.4586 19.0407C53.3316 19.0708 52.5378 19.0859 52.0773 19.0859C51.5581 19.0859 50.7859 19.0708 49.7608 19.0407C48.7357 19.0105 47.9713 18.9954 47.4675 18.9954C46.914 18.9954 46.6373 19.168 46.6373 19.5131C46.6362 19.5795 46.6547 19.6448 46.6905 19.7006C46.7263 19.7564 46.7777 19.8002 46.8382 19.8264C47.0149 19.9113 47.2019 19.9721 47.3945 20.0073C47.617 20.0509 47.8611 20.1045 48.1285 20.1632C48.4192 20.2258 48.6991 20.3319 48.9587 20.4781C49.2452 20.632 49.5013 20.8376 49.7143 21.0846C49.9744 21.3967 50.1576 21.7664 50.249 22.1635C50.4083 22.7025 50.4834 23.2632 50.4715 23.8255C50.4832 24.8091 50.3716 25.7903 50.1394 26.7457C49.9324 27.6146 49.5017 28.6199 48.8475 29.7613C46.5039 26.0889 43.7064 23.2045 40.455 21.1081C42.1033 20.5384 43.3654 19.6097 44.2411 18.3219C45.087 17.1197 45.5477 15.6849 45.5612 14.2106C45.5612 12.3386 44.8632 10.7063 43.4672 9.31347C42.0712 7.92068 40.1677 7.22429 37.7565 7.22429C36.4513 7.21183 35.1554 7.44829 33.9372 7.92124C32.8498 8.31623 31.856 8.93594 31.0196 9.74069C30.2767 10.4696 29.6728 11.33 29.2378 12.2789C28.8171 13.1685 28.597 14.1413 28.5935 15.127C28.5935 16.474 28.8232 17.6345 29.2826 18.6084C29.7421 19.5824 30.5513 20.6306 31.7104 21.7531C29.5417 22.5964 27.8103 23.7965 26.5161 25.3534C25.222 26.9104 24.5766 28.6227 24.5799 30.4901C24.5598 31.8874 24.8331 33.2732 25.3819 34.5562C25.8849 35.6938 26.6386 36.7006 27.5855 37.4999C28.5348 38.2714 29.6136 38.8649 30.7705 39.2523C31.9954 39.6749 33.282 39.8873 34.5765 39.8806C38.1545 39.8806 41.6971 38.4504 45.2042 35.5899C45.7987 36.2043 46.1922 36.6086 46.3849 36.8029C46.5775 36.9973 46.986 37.3569 47.6104 37.8819C48.0965 38.2989 48.6266 38.6608 49.1912 38.9608C49.7521 39.2108 50.3325 39.4136 50.9265 39.5673C51.3358 39.6887 51.7565 39.7662 52.1819 39.7985L52.2284 39.8136H52.4625C52.6186 39.8136 52.7814 39.8236 52.9607 39.8236C53.4589 39.8236 54.3955 39.8806 54.8604 39.8136H70.4565L71.785 33.0585C71.8424 32.7697 71.8817 32.4776 71.9029 32.1839C71.894 31.9706 71.7916 31.8639 71.5957 31.8639ZM35.2457 9.74907C35.6252 9.29052 36.1029 8.92485 36.6428 8.67962C37.1827 8.4344 37.7708 8.31601 38.3626 8.33338C39.0336 8.3159 39.7005 8.44317 40.3188 8.70667C40.9371 8.97017 41.4925 9.36383 41.9478 9.86132C42.8977 10.8665 43.3726 12.2593 43.3726 14.0397C43.3726 15.82 43.0089 17.272 42.2816 18.3956C41.5686 19.4891 40.6559 20.1855 39.5433 20.4848C39.3341 20.3352 39.0147 20.1118 38.5851 19.8147C38.1556 19.5176 37.829 19.278 37.6054 19.0959L36.7153 18.3772C36.4104 18.1249 36.1204 17.8547 35.8469 17.568C35.6398 17.3279 35.4024 17.0358 35.1345 16.6918C34.9035 16.3702 34.7091 16.0235 34.5549 15.6581C34.4102 15.2928 34.2909 14.9177 34.1979 14.5356C34.108 14.0997 34.0635 13.6556 34.0651 13.2104C34.0651 11.8254 34.4586 10.6688 35.2457 9.74069V9.74907ZM41.8581 36.5851C40.7701 37.1223 39.574 37.3992 38.3626 37.3943C37.6511 37.3908 36.9438 37.2847 36.262 37.0793C35.4945 36.8277 34.7673 36.4648 34.1033 36.0021C33.3769 35.4798 32.7317 34.8513 32.1886 34.1374C31.5838 33.2759 31.1248 32.3191 30.8303 31.306C30.4751 30.0729 30.3022 28.7937 30.3172 27.5096C30.3172 25.0837 31.0152 23.4139 32.4111 22.5003C35.3504 24.399 37.6586 26.2185 39.3357 27.9586C41.0129 29.6988 42.7643 31.9829 44.5898 34.8109C43.7611 35.5217 42.8425 36.1183 41.8581 36.5851ZM56.8813 37.3273C56.8813 37.339 56.8813 37.3508 56.8813 37.3625C56.7289 37.3836 56.5752 37.3942 56.4213 37.3943C55.1615 37.3943 53.9299 36.7878 52.7266 35.5749C51.5232 34.3619 50.4079 32.7295 49.3805 30.6778C50.1876 29.3519 50.9162 27.9791 51.5625 26.5664C52.2467 25.0988 52.8185 23.9607 53.2779 23.152C53.7157 22.3544 54.2968 21.6459 54.9916 21.0628C55.3481 20.7718 55.7461 20.5368 56.1723 20.3659L56.4064 20.2737C56.5223 20.3768 56.6176 20.5014 56.687 20.6406C56.8256 20.9318 56.8911 21.2528 56.878 21.5755L56.8813 37.3273Z" fill="black"/>
</svg>
